<?xml version="1.0" encoding="UTF-8"?>
<svg version="1.1" xmlns="http://www.w3.org/2000/svg" width="1024" height="1024">
<path d="M0 0 C1.56983579 -0.00462229 3.13966723 -0.01098403 4.70948982 -0.01890898 C8.97516917 -0.03544332 13.2404857 -0.02742935 17.5061655 -0.0149641 C22.12520741 -0.00585003 26.74419034 -0.01991461 31.36322021 -0.03088379 C40.39291324 -0.04860623 49.42247274 -0.04485712 58.45217085 -0.03323323 C65.79529376 -0.02417437 73.13837944 -0.02298548 80.48150635 -0.02732849 C81.52935621 -0.02794142 82.57720608 -0.02855436 83.65680897 -0.02918586 C85.78595274 -0.03046485 87.91509649 -0.03176171 90.04424024 -0.03307623 C109.97704435 -0.04446364 129.90977471 -0.03139722 149.84256673 -0.00987476 C166.92030927 0.00799453 183.99794302 0.00488991 201.07568359 -0.0135498 C220.94051082 -0.03498905 240.80527352 -0.04336518 260.6701107 -0.03110075 C262.79112116 -0.02982665 264.91213162 -0.02856916 267.03314209 -0.02732849 C268.59822815 -0.02640284 268.59822815 -0.02640284 270.1949321 -0.02545848 C277.52338286 -0.02201474 284.85179244 -0.02781283 292.18023682 -0.0372467 C301.11955465 -0.04850206 310.05873211 -0.0453526 318.998034 -0.02412373 C323.55300522 -0.01366073 328.10774297 -0.00940973 332.6627121 -0.02272034 C336.84256183 -0.03474941 341.02196447 -0.02791109 345.20177436 -0.00681013 C346.70358525 -0.00238813 348.20543491 -0.00450951 349.70722032 -0.01431328 C363.06068725 -0.09471266 376.304166 1.89021704 388.19482422 8.32043457 C388.85748291 8.66662842 389.5201416 9.01282227 390.20288086 9.36950684 C395.52005024 12.22066703 400.28762881 15.43747409 404.75732422 19.50793457 C405.51400391 20.18469238 406.27068359 20.8614502 407.05029297 21.55871582 C420.42788863 34.17443836 429.58362568 52.6429638 430.13764095 71.14319324 C430.15524167 73.59274004 430.15677724 76.04243791 430.14500427 78.49201965 C430.1491866 79.86524885 430.154669 81.23847459 430.16132408 82.61169404 C430.17567992 86.35241683 430.17156517 90.09291746 430.16415727 93.8336519 C430.15940322 97.88082106 430.17195518 101.92794369 430.18217468 105.97509766 C430.19932485 113.89137868 430.2002105 121.80758019 430.19496178 129.72387496 C430.19091149 136.16225545 430.19237382 142.60061255 430.19771004 149.03899193 C430.19845846 149.9572305 430.19920688 150.87546907 430.19997798 151.82153305 C430.20150955 153.68726968 430.2030479 155.5530063 430.20459295 157.41874292 C430.21830452 174.89500987 430.21288994 192.37123199 430.20140774 209.8474979 C430.19147857 225.81219975 430.20441295 241.77678564 430.22834193 257.7414696 C430.25276432 274.15988415 430.26233298 290.57824476 430.2556892 306.9966771 C430.25220372 316.20399389 430.25438449 325.41122156 430.27194023 334.61852455 C430.2867016 342.45710553 430.28724652 350.29553463 430.26986932 358.13411275 C430.26138888 362.12795004 430.25913669 366.1215165 430.27452087 370.11533928 C430.28846727 373.78150939 430.28347916 377.44717919 430.26428164 381.11332109 C430.25880364 383.04622626 430.27270973 384.97915757 430.28763574 386.91201288 C430.13222275 405.63633458 423.33411202 422.60727437 410.75732422 436.50793457 C410.09216797 437.26590332 409.42701172 438.02387207 408.74169922 438.80480957 C396.97971657 451.43805019 379.81340248 460.71537327 362.42766833 461.69567943 C358.34982633 461.77162699 354.27618479 461.78452426 350.19784546 461.77536011 C348.61684281 461.77910043 347.03584201 461.78370347 345.45484412 461.78909075 C341.12591177 461.80128915 336.79705688 461.80106402 332.46811128 461.798702 C327.79308022 461.79829303 323.11807374 461.80934071 318.4430542 461.81881714 C309.28911658 461.83541123 300.13520472 461.84092598 290.98125331 461.84204189 C283.53737057 461.84299321 276.0934963 461.84710768 268.64961624 461.85344315 C247.52915931 461.87105192 226.40872268 461.88028269 205.28825836 461.8787822 C203.58129313 461.87866233 203.58129313 461.87866233 201.83984375 461.87854004 C200.70047185 461.87845828 199.56109995 461.87837652 198.38720162 461.87829228 C179.92947262 461.87747969 161.47182529 461.89661158 143.01411991 461.92481677 C124.04649859 461.95357163 105.07891707 461.9673556 86.11127341 461.96562922 C75.46862121 461.96496617 64.82605461 461.9704209 54.18342209 461.99198532 C45.12058551 462.01023145 36.05787331 462.01451636 26.99502628 462.00096647 C22.3754105 461.99445389 17.75603311 461.99425751 13.13644028 462.01167297 C8.89840074 462.02748495 4.66078701 462.02445797 0.42275734 462.00710471 C-1.10145849 462.00405256 -2.62570675 462.00759901 -4.1498843 462.01882486 C-24.33411553 462.15750935 -42.1051206 456.20381783 -57.24267578 442.50793457 C-58.00064453 441.84277832 -58.75861328 441.17762207 -59.53955078 440.49230957 C-72.07958264 428.8171075 -81.34873324 411.76893137 -82.43042064 394.51285529 C-82.50574817 390.96877118 -82.51882027 387.42949851 -82.51010132 383.88461304 C-82.51384306 382.51397487 -82.51844666 381.14333884 -82.52383196 379.77270615 C-82.53601297 376.02525069 -82.53580731 372.27788483 -82.53344321 368.5304141 C-82.53303379 364.48115395 -82.54408617 360.43192204 -82.55355835 356.38267517 C-82.570143 348.45597379 -82.57566677 340.52930217 -82.57678311 332.60258488 C-82.57773489 326.15555528 -82.58185172 319.70853545 -82.58818436 313.26150894 C-82.60579076 294.9632653 -82.6150243 276.66504508 -82.61352341 258.3667929 C-82.6134435 257.38115286 -82.61336358 256.39551281 -82.61328125 255.38000488 C-82.61319949 254.39315433 -82.61311773 253.40630379 -82.61303349 252.38954867 C-82.61222102 236.40526061 -82.63135037 220.42106686 -82.65955798 204.43680607 C-82.6883255 188.00493168 -82.70209611 171.57310324 -82.70037043 155.14120305 C-82.69970781 145.92377495 -82.70514382 136.70644572 -82.72672653 127.48904037 C-82.74498941 119.63941506 -82.74924399 111.78993341 -82.73570769 103.94029598 C-82.72920336 99.94039825 -82.72896817 95.94077572 -82.74641418 91.94090462 C-82.76226368 88.26907245 -82.75916213 84.59773095 -82.74184592 80.92590989 C-82.73737542 78.98987249 -82.75233968 77.05381912 -82.76832521 75.11784256 C-82.67492627 63.09175144 -80.04487275 51.41166269 -74.18017578 40.82043457 C-73.79659912 40.11475342 -73.41302246 39.40907227 -73.01782227 38.68200684 C-69.03348005 31.66098852 -64.09807958 26.020379 -58.24267578 20.50793457 C-57.46408203 19.77187988 -56.68548828 19.0358252 -55.88330078 18.27746582 C-51.19148589 14.20755257 -46.09940745 11.12330935 -40.61767578 8.25793457 C-40.02768799 7.94050293 -39.4377002 7.62307129 -38.82983398 7.29602051 C-26.61851865 1.25153859 -13.41929852 -0.08760223 0 0 Z " fill="#01A8F2" transform="translate(82.24267578125,50.4920654296875)"/>
<path d="M0 0 C0.78632813 0.64453125 1.57265625 1.2890625 2.3828125 1.953125 C3.08664062 2.49453125 3.79046875 3.0359375 4.515625 3.59375 C19.52503308 15.71899731 28.84245758 35.05503496 31.3828125 53.953125 C32.79828615 70.2554767 28.62808948 85.46257105 21.3828125 99.953125 C20.91540305 105.15478947 20.91540305 105.15478947 22.4453125 109.953125 C26.10501719 111.84200484 29.69836409 111.47429172 33.57250977 110.27563477 C34.74898071 109.87042603 34.74898071 109.87042603 35.94921875 109.45703125 C41.44627529 107.77011982 46.53402955 107.45233993 52.2578125 107.515625 C53.22235352 107.52319824 54.18689453 107.53077148 55.18066406 107.53857422 C66.8139661 107.80715568 75.87191458 111.31648825 85.3828125 117.953125 C86.41341797 118.67048828 86.41341797 118.67048828 87.46484375 119.40234375 C96.59460816 126.55129142 103.02191816 137.69671807 105.3828125 148.953125 C105.65544922 149.87351562 105.65544922 149.87351562 105.93359375 150.8125 C108.77919361 164.37240195 105.30942767 178.78246784 97.8984375 190.25 C95.04655703 194.16031034 91.97292826 197.6969735 88.3828125 200.953125 C87.8053125 201.49710938 87.2278125 202.04109375 86.6328125 202.6015625 C71.74908552 215.5120681 54.37157503 214.81700311 35.77832031 214.71362305 C33.00726231 214.71681937 30.23625886 214.72897079 27.46522522 214.74061584 C20.75488853 214.76330353 14.04497148 214.75405311 7.33464369 214.73311498 C1.87790878 214.7167592 -3.57871245 214.71264887 -9.03546906 214.71708107 C-9.81526377 214.71771175 -10.59505849 214.71834242 -11.39848335 214.71899221 C-12.98310106 214.72033839 -14.56771874 214.72171797 -16.15233639 214.72313056 C-30.9694531 214.73503371 -45.78634088 214.71108562 -60.60340551 214.67411248 C-73.29574312 214.64320016 -85.9878179 214.6408644 -98.68017578 214.65991211 C-113.45433859 214.6820588 -128.2283544 214.68813908 -143.00252461 214.66758949 C-144.57973939 214.66542675 -146.15695419 214.66327765 -147.73416901 214.66114235 C-148.51000386 214.66007598 -149.28583872 214.65900962 -150.08518372 214.65791094 C-155.53249141 214.651462 -160.97972298 214.65618442 -166.42702484 214.66516685 C-173.06928227 214.67573702 -179.71123214 214.66809092 -186.35343304 214.63771107 C-189.73749634 214.62265557 -193.12067547 214.6180368 -196.50481224 214.62990189 C-200.18304836 214.64137921 -203.8598987 214.62186754 -207.5380249 214.59477234 C-208.59329526 214.60524383 -209.64856561 214.61571532 -210.73581386 214.62650412 C-222.1440884 214.47069211 -232.49667191 210.01129498 -240.6171875 201.953125 C-248.97991475 191.8298236 -252.53077538 182.0817212 -251.6171875 168.953125 C-249.89349677 157.61766734 -244.95482899 146.97777273 -235.6171875 139.953125 C-229.06031458 136.14479671 -222.92219861 132.86242589 -215.24609375 132.8125 C-214.42431641 132.79316406 -213.60253906 132.77382813 -212.75585938 132.75390625 C-211.04255358 132.72013373 -209.32887101 132.70182901 -207.61523438 132.69921875 C-203.15973026 132.56663523 -201.17466114 132.37810174 -197.52734375 129.59765625 C-195.34024588 127.08226757 -195.34024588 127.08226757 -195.4921875 123.890625 C-196.21790074 120.53509941 -197.70623217 117.66435952 -199.1796875 114.578125 C-202.9800757 105.82070872 -203.1926471 95.1906805 -200.4921875 86.015625 C-199.65234375 83.99609375 -199.65234375 83.99609375 -198.6171875 81.953125 C-198.20339844 81.12425781 -197.78960937 80.29539062 -197.36328125 79.44140625 C-191.45317763 68.66794761 -183.01211014 63.20572804 -171.75390625 58.84375 C-159.8477801 55.46318118 -149.32094112 58.60124819 -138.6171875 63.953125 C-133.6986104 64.47292645 -133.6986104 64.47292645 -129.44921875 62.328125 C-127.14097755 59.3357782 -126.99513809 57.38714092 -126.6796875 53.640625 C-124.04349554 31.89767422 -113.3222944 14.75283422 -96.8671875 0.703125 C-68.40448005 -20.91412116 -28.48586399 -22.27849661 0 0 Z " fill="#F4F4F4" transform="translate(354.6171875,238.046875)"/>
<path d="M0 0 C14.95432044 11.75769666 23.76122271 25.78392447 31.25 43.0625 C33.1669986 42.75204268 35.08358723 42.43905329 37 42.125 C38.06734375 41.95097656 39.1346875 41.77695313 40.234375 41.59765625 C43.0710221 41.14626652 43.0710221 41.14626652 45.08007812 40.54394531 C59.32738532 37.3828641 76.5836007 39.24171519 90.25 44.0625 C90.87229492 44.27148926 91.49458984 44.48047852 92.13574219 44.69580078 C115.7308268 52.71092494 135.62146093 70.03343568 147.25 92.0625 C158.31984029 115.20154116 160.74685497 139.68022053 152.25 164.0625 C153.55453125 164.02769531 154.8590625 163.99289062 156.203125 163.95703125 C178.45824477 163.53052455 196.07430086 169.49282517 212.3515625 185.07421875 C227.06047132 200.43622584 231.70110773 219.01119769 231.46484375 239.65625 C231.30340124 245.52834535 230.43342771 250.59954632 228.25 256.0625 C227.89808594 257.04089844 227.54617188 258.01929688 227.18359375 259.02734375 C224.46517302 266.1418904 220.95207128 272.08879938 216.25 278.0625 C215.66605469 278.82304687 215.08210938 279.58359375 214.48046875 280.3671875 C206.29122681 290.3322019 195.38080754 296.93350464 183.25 301.0625 C182.56524953 301.3090573 181.88049906 301.5556146 181.17499858 301.80964333 C174.45316539 304.06058672 168.36890312 304.48976538 161.31523132 304.45018005 C159.57045485 304.45825836 159.57045485 304.45825836 157.79043037 304.46649987 C154.58856168 304.47826555 151.3870305 304.47673931 148.18515933 304.46933305 C144.72149898 304.46458033 141.25789307 304.47712981 137.79425049 304.48735046 C131.01870379 304.50450351 124.24324998 304.50538566 117.46768721 304.50013756 C111.9569674 304.49608765 106.44627493 304.49754915 100.93555641 304.50288582 C100.14968676 304.50363424 99.3638171 304.50438266 98.55413321 304.50515376 C96.95735805 304.50668533 95.3605829 304.50822368 93.76380775 304.50976873 C78.80560273 304.52348144 63.84745008 304.51806502 48.88924626 304.50658352 C35.22514204 304.49665518 21.56117331 304.50958707 7.89708998 304.53351771 C-6.15500766 304.55794122 -20.20704227 304.56750843 -34.2591607 304.56086498 C-42.1395885 304.55737962 -50.01991219 304.55955938 -57.90032387 304.57711601 C-64.60961102 304.59187886 -71.31872074 304.59242053 -78.02800456 304.5750451 C-81.44642047 304.56656558 -84.86451999 304.56430986 -88.28291893 304.57969666 C-92.00033457 304.59294691 -95.71690055 304.58132175 -99.4342804 304.56370544 C-100.49851252 304.57331045 -101.56274465 304.58291546 -102.65922624 304.59281152 C-118.76187565 304.4367241 -132.7122237 297.7621939 -144.2421875 286.7578125 C-156.00300253 274.1176842 -160.30937879 258.85259022 -159.84326172 242.04541016 C-159.09430427 226.12124158 -151.52930797 212.88978042 -140.14453125 201.9765625 C-131.00937737 194.67440035 -119.69941553 188.29977135 -107.75 189.0625 C-108.07613281 188.30839844 -108.40226562 187.55429687 -108.73828125 186.77734375 C-110.12532014 181.68439399 -110.00085756 176.87700786 -109.9375 171.625 C-109.93685547 170.61373047 -109.93621094 169.60246094 -109.93554688 168.56054688 C-109.90462629 163.29373976 -109.66225827 158.25142504 -108.75 153.0625 C-109.41644531 152.61261719 -110.08289063 152.16273438 -110.76953125 151.69921875 C-133.10734553 136.1096113 -145.36337635 114.84371549 -151.29199219 88.66967773 C-155.43038498 65.11216351 -149.4930501 41.43333196 -136.5859375 21.6171875 C-121.22817532 0.22801326 -99.30577036 -14.45224173 -73.3203125 -19.28125 C-47.16544305 -23.43387972 -20.90280672 -15.95316019 0 0 Z M-2 87.75 C-11.54101999 100.23897606 -16.53161727 114.45352039 -18.02734375 129.9609375 C-18.86298565 133.54742219 -19.84871635 134.84920457 -22.75 137.0625 C-28.6927621 138.15402773 -32.99566867 135.83728118 -38.19921875 133.25390625 C-46.85502874 129.21099347 -57.72242487 129.93382733 -66.5625 133.0625 C-78.7115187 138.37583005 -86.53305175 146.98114615 -91.75 159.0625 C-94.47722755 169.79733186 -93.68302592 180.62774514 -88.94921875 190.54296875 C-87.31896547 193.96809371 -86.59477577 196.25950648 -86.75 200.0625 C-88.74902021 202.80309223 -90.33937856 204.76168814 -93.76611328 205.49243164 C-96.14443848 205.63722404 -98.49252404 205.65189025 -100.875 205.625 C-113.44833366 205.89877516 -122.59980347 209.00021573 -131.65625 217.9453125 C-140.31429746 227.30040615 -143.31240761 237.67726572 -142.9921875 250.34375 C-142.04095899 261.02205713 -136.75353215 270.59791412 -129 277.9375 C-122.67464262 283.08691031 -114.22643571 287.17452071 -106.00583363 287.2023077 C-105.02392671 287.20799894 -104.0420198 287.21369018 -103.03035814 287.21955389 C-101.94887221 287.22073376 -100.86738628 287.22191364 -99.75312805 287.22312927 C-98.60620851 287.22821709 -97.45928897 287.23330491 -96.2776143 287.23854691 C-93.08863468 287.25155645 -89.89968022 287.26003772 -86.7106818 287.2665199 C-83.9763637 287.27289095 -81.24206435 287.28296129 -78.50775794 287.29308056 C-69.49529126 287.32641594 -60.48281315 287.34793374 -51.470305 287.36628041 C-49.12165446 287.37107665 -46.77300437 287.37605987 -44.42435431 287.38108563 C-29.82849424 287.41207016 -15.23263016 287.43874675 -0.63674641 287.45550442 C2.74485468 287.45945373 6.1264557 287.46345674 9.50805664 287.4675293 C10.7687324 287.46904184 10.7687324 287.46904184 12.05487636 287.47058494 C25.64630571 287.48756374 39.23755208 287.52863964 52.82889225 287.57955229 C66.79601718 287.63143994 80.76304832 287.66046178 94.73026878 287.6677013 C102.5668337 287.6723508 110.40309956 287.68696647 118.23956871 287.7274456 C124.91932506 287.76190807 131.59872838 287.77562018 138.27856847 287.76302146 C141.68144695 287.75723087 145.08298183 287.76413535 148.48584557 287.7911911 C168.54130696 287.94204617 185.02040389 286.45092656 200.25 272.0625 C211.64731187 259.65749897 215.6226688 246.17909425 215.46484375 229.625 C214.66784965 216.40938872 208.32542131 204.50834667 199.25 195.0625 C192.85486751 189.50984005 186.27010836 185.71399245 178.25 183.0625 C177.38503906 182.70542969 176.52007812 182.34835937 175.62890625 181.98046875 C170.89533367 180.69446926 166.38321061 180.73350267 161.5 180.75 C160.09234375 180.72583008 160.09234375 180.72583008 158.65625 180.70117188 C152.83210213 180.69714967 147.93331938 181.46774875 142.42651367 183.38061523 C138.56019465 184.59190284 134.96679055 184.94858545 131.3125 183.0625 C129.49981242 179.6503822 129.54116032 176.75181517 130.25 173.0625 C131.60576909 169.42638534 133.11743218 165.95391522 134.7421875 162.4296875 C142.21798565 145.73502945 142.16970309 127.20505484 136.25 110.0625 C132.57468043 100.83151323 127.78160512 92.56523106 121.25 85.0625 C120.80527344 84.47597656 120.36054688 83.88945312 119.90234375 83.28515625 C112.06836113 73.21289288 100.65119847 67.20086785 89.25 62.0625 C88.45335937 61.70285156 87.65671875 61.34320313 86.8359375 60.97265625 C54.02967082 49.42603973 19.95169099 62.2826085 -2 87.75 Z " fill="#020202" transform="translate(245.75,164.9375)"/>
<path d="M0 0 C1.56983579 -0.00462229 3.13966723 -0.01098403 4.70948982 -0.01890898 C8.97516917 -0.03544332 13.2404857 -0.02742935 17.5061655 -0.0149641 C22.12520741 -0.00585003 26.74419034 -0.01991461 31.36322021 -0.03088379 C40.39291324 -0.04860623 49.42247274 -0.04485712 58.45217085 -0.03323323 C65.79529376 -0.02417437 73.13837944 -0.02298548 80.48150635 -0.02732849 C81.52935621 -0.02794142 82.57720608 -0.02855436 83.65680897 -0.02918586 C85.78595274 -0.03046485 87.91509649 -0.03176171 90.04424024 -0.03307623 C109.97704435 -0.04446364 129.90977471 -0.03139722 149.84256673 -0.00987476 C166.92030927 0.00799453 183.99794302 0.00488991 201.07568359 -0.0135498 C220.94051082 -0.03498905 240.80527352 -0.04336518 260.6701107 -0.03110075 C262.79112116 -0.02982665 264.91213162 -0.02856916 267.03314209 -0.02732849 C268.59822815 -0.02640284 268.59822815 -0.02640284 270.1949321 -0.02545848 C277.52338286 -0.02201474 284.85179244 -0.02781283 292.18023682 -0.0372467 C301.11955465 -0.04850206 310.05873211 -0.0453526 318.998034 -0.02412373 C323.55300522 -0.01366073 328.10774297 -0.00940973 332.6627121 -0.02272034 C336.84256183 -0.03474941 341.02196447 -0.02791109 345.20177436 -0.00681013 C346.70358525 -0.00238813 348.20543491 -0.00450951 349.70722032 -0.01431328 C363.06068725 -0.09471266 376.304166 1.89021704 388.19482422 8.32043457 C388.85748291 8.66662842 389.5201416 9.01282227 390.20288086 9.36950684 C395.52005024 12.22066703 400.28762881 15.43747409 404.75732422 19.50793457 C405.51400391 20.18469238 406.27068359 20.8614502 407.05029297 21.55871582 C420.42788863 34.17443836 429.58362568 52.6429638 430.13764095 71.14319324 C430.15524167 73.59274004 430.15677724 76.04243791 430.14500427 78.49201965 C430.1491866 79.86524885 430.154669 81.23847459 430.16132408 82.61169404 C430.17567992 86.35241683 430.17156517 90.09291746 430.16415727 93.8336519 C430.15940322 97.88082106 430.17195518 101.92794369 430.18217468 105.97509766 C430.19932485 113.89137868 430.2002105 121.80758019 430.19496178 129.72387496 C430.19091149 136.16225545 430.19237382 142.60061255 430.19771004 149.03899193 C430.19845846 149.9572305 430.19920688 150.87546907 430.19997798 151.82153305 C430.20150955 153.68726968 430.2030479 155.5530063 430.20459295 157.41874292 C430.21830452 174.89500987 430.21288994 192.37123199 430.20140774 209.8474979 C430.19147857 225.81219975 430.20441295 241.77678564 430.22834193 257.7414696 C430.25276432 274.15988415 430.26233298 290.57824476 430.2556892 306.9966771 C430.25220372 316.20399389 430.25438449 325.41122156 430.27194023 334.61852455 C430.2867016 342.45710553 430.28724652 350.29553463 430.26986932 358.13411275 C430.26138888 362.12795004 430.25913669 366.1215165 430.27452087 370.11533928 C430.28846727 373.78150939 430.28347916 377.44717919 430.26428164 381.11332109 C430.25880364 383.04622626 430.27270973 384.97915757 430.28763574 386.91201288 C430.13222275 405.63633458 423.33411202 422.60727437 410.75732422 436.50793457 C410.09216797 437.26590332 409.42701172 438.02387207 408.74169922 438.80480957 C396.97971657 451.43805019 379.81340248 460.71537327 362.42766833 461.69567943 C358.34982633 461.77162699 354.27618479 461.78452426 350.19784546 461.77536011 C348.61684281 461.77910043 347.03584201 461.78370347 345.45484412 461.78909075 C341.12591177 461.80128915 336.79705688 461.80106402 332.46811128 461.798702 C327.79308022 461.79829303 323.11807374 461.80934071 318.4430542 461.81881714 C309.28911658 461.83541123 300.13520472 461.84092598 290.98125331 461.84204189 C283.53737057 461.84299321 276.0934963 461.84710768 268.64961624 461.85344315 C247.52915931 461.87105192 226.40872268 461.88028269 205.28825836 461.8787822 C203.58129313 461.87866233 203.58129313 461.87866233 201.83984375 461.87854004 C200.70047185 461.87845828 199.56109995 461.87837652 198.38720162 461.87829228 C179.92947262 461.87747969 161.47182529 461.89661158 143.01411991 461.92481677 C124.04649859 461.95357163 105.07891707 461.9673556 86.11127341 461.96562922 C75.46862121 461.96496617 64.82605461 461.9704209 54.18342209 461.99198532 C45.12058551 462.01023145 36.05787331 462.01451636 26.99502628 462.00096647 C22.3754105 461.99445389 17.75603311 461.99425751 13.13644028 462.01167297 C8.89840074 462.02748495 4.66078701 462.02445797 0.42275734 462.00710471 C-1.10145849 462.00405256 -2.62570675 462.00759901 -4.1498843 462.01882486 C-24.33411553 462.15750935 -42.1051206 456.20381783 -57.24267578 442.50793457 C-58.00064453 441.84277832 -58.75861328 441.17762207 -59.53955078 440.49230957 C-72.07958264 428.8171075 -81.34873324 411.76893137 -82.43042064 394.51285529 C-82.50574817 390.96877118 -82.51882027 387.42949851 -82.51010132 383.88461304 C-82.51384306 382.51397487 -82.51844666 381.14333884 -82.52383196 379.77270615 C-82.53601297 376.02525069 -82.53580731 372.27788483 -82.53344321 368.5304141 C-82.53303379 364.48115395 -82.54408617 360.43192204 -82.55355835 356.38267517 C-82.570143 348.45597379 -82.57566677 340.52930217 -82.57678311 332.60258488 C-82.57773489 326.15555528 -82.58185172 319.70853545 -82.58818436 313.26150894 C-82.60579076 294.9632653 -82.6150243 276.66504508 -82.61352341 258.3667929 C-82.6134435 257.38115286 -82.61336358 256.39551281 -82.61328125 255.38000488 C-82.61319949 254.39315433 -82.61311773 253.40630379 -82.61303349 252.38954867 C-82.61222102 236.40526061 -82.63135037 220.42106686 -82.65955798 204.43680607 C-82.6883255 188.00493168 -82.70209611 171.57310324 -82.70037043 155.14120305 C-82.69970781 145.92377495 -82.70514382 136.70644572 -82.72672653 127.48904037 C-82.74498941 119.63941506 -82.74924399 111.78993341 -82.73570769 103.94029598 C-82.72920336 99.94039825 -82.72896817 95.94077572 -82.74641418 91.94090462 C-82.76226368 88.26907245 -82.75916213 84.59773095 -82.74184592 80.92590989 C-82.73737542 78.98987249 -82.75233968 77.05381912 -82.76832521 75.11784256 C-82.67492627 63.09175144 -80.04487275 51.41166269 -74.18017578 40.82043457 C-73.79659912 40.11475342 -73.41302246 39.40907227 -73.01782227 38.68200684 C-69.03348005 31.66098852 -64.09807958 26.020379 -58.24267578 20.50793457 C-57.46408203 19.77187988 -56.68548828 19.0358252 -55.88330078 18.27746582 C-51.19148589 14.20755257 -46.09940745 11.12330935 -40.61767578 8.25793457 C-40.02768799 7.94050293 -39.4377002 7.62307129 -38.82983398 7.29602051 C-26.61851865 1.25153859 -13.41929852 -0.08760223 0 0 Z M-51.24267578 38.50793457 C-62.13164151 51.68102331 -65.7166282 66.26657251 -65.62362671 83.13256836 C-65.62709163 84.4666871 -65.63186176 85.80080298 -65.63780844 87.13491297 C-65.65023365 90.76742123 -65.6441872 94.39969047 -65.63484979 98.03219914 C-65.62802452 101.96274061 -65.63855766 105.89324275 -65.64678955 109.82377625 C-65.66009218 117.51045394 -65.65726467 125.19704349 -65.64855163 132.88372457 C-65.64176178 139.13381951 -65.64086398 145.38388985 -65.64412308 151.63398743 C-65.64458278 152.52533855 -65.64504248 153.41668968 -65.6455161 154.33505145 C-65.64647533 156.14611527 -65.64744797 157.95717909 -65.64843388 159.7682429 C-65.65697761 176.72937812 -65.64716963 193.69046461 -65.63103278 210.65159184 C-65.61763053 225.18820313 -65.61995891 239.72474254 -65.63378906 254.26135254 C-65.64986287 271.16400443 -65.65615373 288.06661367 -65.64695227 304.96927214 C-65.64599668 306.77347532 -65.64505356 308.57767851 -65.64412308 310.38188171 C-65.64366025 311.26946093 -65.64319742 312.15704015 -65.64272057 313.07151571 C-65.64013608 319.31024559 -65.64448999 325.54894828 -65.65156174 331.78767395 C-65.65999697 339.39612341 -65.6576542 347.00448007 -65.64171951 354.61291897 C-65.63386392 358.49090117 -65.63069856 362.36872895 -65.64066696 366.24670982 C-65.64967105 369.80347934 -65.64458819 373.35995275 -65.62873431 376.91669577 C-65.62384792 378.79812695 -65.63353164 380.67957903 -65.643906 382.56098795 C-65.52918997 399.30125246 -60.21511521 414.28162742 -48.41064453 426.40246582 C-47.69521484 427.09727051 -46.97978516 427.7920752 -46.24267578 428.50793457 C-45.4325 429.34904785 -45.4325 429.34904785 -44.60595703 430.20715332 C-31.93536087 442.36709573 -14.46316739 444.97020351 2.30465698 444.89561462 C3.84771521 444.8997952 5.39077036 444.90527667 6.93381989 444.91193444 C11.14392985 444.92631286 15.35384278 444.92216829 19.56396317 444.91476762 C24.1162282 444.91001932 28.66845162 444.92256045 33.22070312 444.93278503 C42.12725889 444.94994585 51.03374402 444.95081869 59.94031201 444.94557213 C67.18247607 444.94152415 74.42461931 444.94298145 81.66678238 444.94832039 C82.69909948 444.94906881 83.73141659 444.94981723 84.79501603 444.95058833 C86.89243539 444.95211987 88.98985474 444.95365822 91.08727409 444.9552033 C110.73861803 444.9689185 130.38992212 444.96349753 150.04126514 444.95201809 C168.001561 444.94208665 185.96175381 444.9550266 203.92203377 444.97895228 C222.38463459 445.00336095 240.84718746 445.01294681 259.30980408 445.00629956 C269.66677035 445.00281128 280.02365739 445.00501354 290.38061142 445.02255058 C299.19710855 445.03729466 308.01347067 445.03787918 316.82996522 445.02047967 C321.32390889 445.01198549 325.8176116 445.00978128 330.31154251 445.02513123 C334.43346212 445.03903565 338.55493564 445.03414197 342.67682983 445.01489199 C344.15988546 445.01114922 345.64297732 445.0140037 347.12600051 445.02450364 C365.03223421 445.14216516 381.49237482 440.32008279 394.58154297 427.71105957 C395.29955078 426.98402832 396.01755859 426.25699707 396.75732422 425.50793457 C397.60230469 424.6958252 397.60230469 424.6958252 398.46435547 423.86730957 C409.73774201 412.08825661 413.22434974 395.66289196 413.13827515 379.96559143 C413.14173893 378.62821095 413.1465083 377.29083333 413.15245688 375.95346159 C413.16489793 372.30729285 413.15882826 368.66136184 413.14949822 365.01519263 C413.14267949 361.07168184 413.15320294 357.12821047 413.16143799 353.18470764 C413.17474789 345.47048738 413.17190974 337.7563549 413.16320007 330.04213125 C413.15641261 323.76960585 413.15551139 317.49710497 413.15877151 311.22457695 C413.15923121 310.33031497 413.15969091 309.43605299 413.16016454 308.51469217 C413.16112376 306.69774981 413.1620964 304.88080746 413.16308232 303.06386512 C413.1716283 286.04312276 413.16181476 269.02242895 413.14568122 252.00169455 C413.13228106 237.41333684 413.13460518 222.82505076 413.1484375 208.23669434 C413.16451127 191.276551 413.17080199 174.31645018 413.16160071 157.35630029 C413.16064511 155.54590285 413.159702 153.73550541 413.15877151 151.92510796 C413.15807728 150.58915048 413.15807728 150.58915048 413.15736901 149.22620397 C413.15478434 142.96544435 413.15913887 136.7047118 413.16621017 130.44395638 C413.17464547 122.80803445 413.17230261 115.17220498 413.15636794 107.53629357 C413.14851209 103.64414165 413.14534743 99.75214358 413.1553154 95.85999298 C413.16431906 92.29023099 413.15923729 88.72076404 413.14338274 85.15102845 C413.13849596 83.26259065 413.14818053 81.37413203 413.15855443 79.4857164 C413.03823027 61.86400743 407.04345668 46.59875454 394.57763672 34.13293457 C379.93604174 20.50530047 363.95356462 17.19268834 344.5196991 17.24723816 C342.98590593 17.24421359 341.45211427 17.24032259 339.91832525 17.23564559 C335.72460503 17.22539611 331.53097059 17.22753961 327.33724344 17.23182619 C322.80610324 17.23429898 318.27498339 17.22527237 313.74385071 17.2177887 C304.87480034 17.20505486 296.00578026 17.20324638 287.13672229 17.20558896 C279.92549345 17.20737381 272.71427378 17.20561889 265.50304604 17.20136452 C263.96205691 17.20047173 263.96205691 17.20047173 262.38993669 17.19956091 C260.30274253 17.19834913 258.21554838 17.197135 256.12835423 17.19591854 C236.5648059 17.18504799 217.00127482 17.18720315 197.43772552 17.19330338 C179.55424316 17.19847166 161.67081529 17.18721859 143.7873437 17.16820516 C125.40956752 17.14881651 107.0318171 17.1405726 88.65403062 17.14432842 C78.34235072 17.14623896 68.03071718 17.14376726 57.71904564 17.12961388 C48.94018842 17.11768599 40.1614061 17.11631095 31.38254782 17.12840404 C26.90700521 17.13428293 22.43159953 17.13541963 17.95606613 17.12340164 C13.85207623 17.11250979 9.74833701 17.11568518 5.64435867 17.12966333 C4.16664344 17.13230121 2.68890835 17.12997255 1.21121266 17.12192746 C-19.98546096 17.01461559 -36.79354428 22.94237686 -51.24267578 38.50793457 Z " fill="#000000" transform="translate(82.24267578125,50.4920654296875)"/>
<path d="M0 0 C12.9760891 9.87709144 21.73153983 22.23285792 27.64379883 37.3762207 C27.64379883 38.3662207 27.64379883 39.3562207 27.64379883 40.3762207 C25.58576591 41.83754586 23.56720146 43.10934239 21.39379883 44.3762207 C0.62725345 57.18507235 -12.84658351 76.89259998 -19.35620117 100.3762207 C-19.70842623 102.03899742 -20.04789961 103.7047426 -20.35620117 105.3762207 C-21.1322168 105.2318457 -21.90823242 105.0874707 -22.70776367 104.9387207 C-40.28435302 101.91839986 -56.163225 102.73943404 -71.62573242 112.44262695 C-77.26484243 116.43598812 -82.33603504 120.72794991 -86.35620117 126.3762207 C-100.5094129 121.59132706 -109.85178667 105.91842868 -116.35620117 93.3762207 C-124.03289844 76.69735327 -125.03805692 55.92779471 -119.35620117 38.3762207 C-117.15403439 32.79765711 -114.33866351 27.56958553 -111.35620117 22.3762207 C-110.88311523 21.52415039 -110.4100293 20.67208008 -109.92260742 19.79418945 C-99.4339164 2.52052917 -81.35731647 -8.25928568 -62.23120117 -13.4362793 C-40.41356222 -18.00336879 -18.02784973 -12.97644366 0 0 Z " fill="#FEDE00" transform="translate(233.356201171875,176.623779296875)"/>
<path d="M0 0 C15.81698338 3.06135162 29.64994263 10.51781592 39.0625 23.94140625 C45.70245448 34.27971773 50.11143791 44.34340333 50.13422108 56.76200199 C50.13867892 57.89455136 50.14313676 59.02710074 50.14772969 60.19396979 C50.14754533 61.42829243 50.14736097 62.66261507 50.14717102 63.93434143 C50.15084771 65.25336659 50.1545244 66.57239175 50.1583125 67.93138736 C50.16830092 71.58684474 50.17204418 75.2422857 50.17470181 78.89775479 C50.17861422 82.84272716 50.18819184 86.78768664 50.19691467 90.73265076 C50.21665182 100.25643206 50.22674143 109.78021438 50.23564246 119.30401102 C50.24002954 123.79268567 50.24539523 128.28135915 50.25063133 132.77003288 C50.26764025 147.69745037 50.28213377 162.62486714 50.28938007 177.55229282 C50.29128986 181.42361515 50.29321021 185.29493746 50.29516602 189.16625977 C50.29564976 190.12841591 50.2961335 191.09057205 50.2966319 192.08188444 C50.30492988 207.66355271 50.33026441 223.24514416 50.36274669 238.8267789 C50.39584725 254.83591884 50.41383151 270.84501977 50.41702431 286.8541941 C50.41918655 295.83798517 50.42789325 304.82166418 50.45348549 313.80542183 C50.47523339 321.4571764 50.48322281 329.10879166 50.47351871 336.76057363 C50.46898593 340.66097301 50.47080021 344.56108521 50.49028015 348.46144485 C50.50799842 352.04014983 50.50684498 355.61835997 50.49138286 359.19707083 C50.4879102 361.08801191 50.50396816 362.9789587 50.52098733 364.86982638 C50.39014855 382.41692208 43.40363467 397.75031115 31 410 C30.45859375 410.56332031 29.9171875 411.12664062 29.359375 411.70703125 C22.34915645 418.41630607 11.74237235 423.80515255 2 424 C4.26389112 421.66308014 6.47921158 419.41804099 9.01953125 417.37890625 C22.1680297 406.67128492 29.75374163 390.60567778 32 374 C32.2713174 369.47570122 32.27890168 364.96464035 32.26742554 360.43315125 C32.27116991 359.09307263 32.27577454 357.7529962 32.28115618 356.41292316 C32.29330413 352.75926763 32.29313551 349.10570423 32.29076743 345.45203316 C32.29035718 341.50030577 32.30141807 337.54860711 32.31088257 333.59689331 C32.32744765 325.86598298 32.33299005 318.13510316 32.33410732 310.40417656 C32.33505979 304.11689245 32.33917996 297.82961835 32.34550858 291.54233742 C32.36310753 273.69354452 32.37234938 255.84477561 32.37084763 237.99597397 C32.37072776 236.55465997 32.37072776 236.55465997 32.37060547 235.08422852 C32.37052371 234.12217158 32.37044195 233.16011464 32.37035771 232.16890446 C32.36954485 216.5785251 32.38868602 200.98824236 32.4168822 185.39789095 C32.44564488 169.36711231 32.45942068 153.33638075 32.45769465 137.30557567 C32.45703199 128.31456817 32.46246993 119.32366202 32.48405075 110.33267784 C32.50230698 102.67813758 32.50657342 95.02374463 32.4930319 87.36919197 C32.48652502 83.46863973 32.48630192 79.56836974 32.5037384 75.66784477 C32.51957576 72.08804466 32.51649853 68.50874809 32.49917014 64.92895947 C32.49469475 63.03999685 32.50967331 61.15101793 32.52564943 59.26211756 C32.37352351 40.18856062 24.46884121 22.44943365 11 9 C8.09524282 6.65780971 5.15522925 4.49996638 2.0546875 2.42578125 C1.37664062 1.95527344 0.69859375 1.48476562 0 1 C0 0.67 0 0.34 0 0 Z " fill="#0276BA" transform="translate(445,69)"/>
<path d="M0 0 C11.30972002 3.39291601 20.97563685 8.37747967 30 16 C30.88751953 16.67095703 30.88751953 16.67095703 31.79296875 17.35546875 C46.59892384 28.90885705 55.54335289 48.7246252 58 67 C59.35573829 82.61436518 55.5918822 96.97159331 49 111 C46.42357327 113.57642673 44.76014439 113.53827721 41.1875 114.0625 C37.43426929 114.62665021 33.71878037 115.24177916 30 116 C30.23187012 115.39115967 30.46374023 114.78231934 30.70263672 114.1550293 C31.76983478 111.33610108 32.82244167 108.51192555 33.875 105.6875 C34.23980469 104.73037109 34.60460937 103.77324219 34.98046875 102.78710938 C42.66612435 82.03583926 41.89460424 60.15317135 32.828125 39.8984375 C26.41228699 26.63651063 18.10509917 15.49619362 6.19140625 6.68359375 C3.92198393 4.94006252 1.94596915 3.09668202 0 1 C0 0.67 0 0.34 0 0 Z " fill="#CCD4D8" transform="translate(328,225)"/>
<path d="M0 0 C5.70532902 1.25656857 10.61849871 2.96776791 15.8125 5.625 C16.50682129 5.97908936 17.20114258 6.33317871 17.91650391 6.69799805 C36.32008224 16.31272894 48.47810465 30.76971098 56 50 C56 50.99 56 51.98 56 53 C53.94196708 54.46132515 51.92340263 55.73312169 49.75 57 C28.98345462 69.80885165 15.50961767 89.51637928 9 113 C8.64777495 114.66277671 8.30830157 116.3285219 8 118 C5.89535207 117.69075786 3.7912947 117.3774944 1.6875 117.0625 C0.51574219 116.88847656 -0.65601563 116.71445312 -1.86328125 116.53515625 C-5 116 -5 116 -8 115 C-5.42395421 96.96767946 7.27126857 79.35171644 21 68 C26.64539985 63.83772668 32.65853744 60.00713089 39 57 C38.48839995 51.23810447 37.37293625 46.57539932 35 41.3125 C34.5364209 40.27766479 34.5364209 40.27766479 34.06347656 39.22192383 C27.08313246 24.20103965 16.46606352 11.60366431 2.01953125 3.33984375 C1.35308594 2.89769531 0.68664062 2.45554688 0 2 C0 1.34 0 0.68 0 0 Z " fill="#FABE07" transform="translate(205,164)"/>
<path d="M0 0 C14.85769007 2.87568195 26.96184068 8.92396465 36.21484375 21.29296875 C45.13745046 34.82331109 48.00278674 48.09702315 45.3125 64.1875 C42.64815938 75.53423732 36.58871077 85.21023907 28 93 C27.4225 93.54398437 26.845 94.08796875 26.25 94.6484375 C21.47179675 98.79316683 16.54371148 101.26947142 10.6875 103.5 C9.99358154 103.7673999 9.29966309 104.0347998 8.5847168 104.31030273 C2.4755355 106.50100248 2.4755355 106.50100248 -1 105 C0.2375 104.2265625 0.2375 104.2265625 1.5 103.4375 C15.05433038 94.28434042 23.06527894 81.38712667 27.375 65.625 C30.52875469 47.88512987 26.40350542 31.13437205 16.1875 16.3828125 C12.02942598 10.86665786 7.43022218 6.63075365 1.90625 2.49609375 C1.2771875 2.00238281 0.648125 1.50867188 0 1 C0 0.67 0 0.34 0 0 Z " fill="#CCD5D9" transform="translate(415,346)"/>
<path d="M0 0 C2.0898686 -0.0171578 4.17813146 -0.06103617 6.26757812 -0.10522461 C7.6061082 -0.11535709 8.94465169 -0.12387146 10.28320312 -0.13061523 C12.10223145 -0.15248901 12.10223145 -0.15248901 13.95800781 -0.17480469 C18.05751559 0.39130381 20.20067154 1.65942309 23.36132812 4.29516602 C24.60473518 8.31795355 24.80557857 10.32204599 23.04882812 14.17016602 C21.36132812 16.29516602 21.36132812 16.29516602 19.36132812 17.29516602 C16.92733704 17.41800086 14.52301243 17.48348486 12.08789062 17.49829102 C11.36773773 17.50399109 10.64758484 17.50969116 9.90560913 17.51556396 C8.3807726 17.52501437 6.85591564 17.53154811 5.33105469 17.53540039 C3.00224001 17.54509974 0.67431036 17.57611842 -1.65429688 17.60766602 C-3.13606247 17.61419688 -4.61783437 17.61944703 -6.09960938 17.62329102 C-6.79452484 17.63563782 -7.48944031 17.64798462 -8.20541382 17.66070557 C-11.30794355 17.64646698 -13.35273946 17.46073614 -16.06298828 15.89135742 C-18.42174528 13.50190077 -18.54524015 11.54757547 -18.81445312 8.29907227 C-18.53120852 5.07008373 -16.92983423 3.45540481 -14.63867188 1.29516602 C-10.37020018 -0.83906983 -4.73724482 0.02709209 0 0 Z " fill="#000507" transform="translate(52.638671875,229.704833984375)"/>
<path d="M0 0 C2.71313477 1.11401367 2.71313477 1.11401367 5.44140625 2.66796875 C6.43720703 3.23193359 7.43300781 3.79589844 8.45898438 4.37695312 C9.48314453 4.97443359 10.50730469 5.57191406 11.5625 6.1875 C12.59052734 6.76564453 13.61855469 7.34378906 14.67773438 7.93945312 C24.38310404 13.50604558 24.38310404 13.50604558 28 18 C28.71235686 21.7992366 28.31263988 23.43724821 26.4375 26.8125 C23.16864403 29.74608869 21.38699866 29.9121722 17 30 C13.81832384 28.84399713 11.0160388 27.18450604 8.125 25.4375 C7.33359619 24.97730469 6.54219238 24.51710937 5.72680664 24.04296875 C-9.41970394 15.16059211 -9.41970394 15.16059211 -11 12 C-11.49512681 7.62637986 -11.49223866 5.68044756 -8.875 2.0625 C-5.43600398 -0.40460584 -4.14394754 -0.38766477 0 0 Z " fill="#000405" transform="translate(65,158)"/>
<path d="M0 0 C2.9375 2.125 2.9375 2.125 5 5 C5.5258676 9.80046145 4.52334732 12.57387198 2.11328125 16.6953125 C1.1996582 18.26345703 1.1996582 18.26345703 0.26757812 19.86328125 C-0.37759766 20.93964844 -1.02277344 22.01601562 -1.6875 23.125 C-2.31333984 24.20910156 -2.93917969 25.29320312 -3.58398438 26.41015625 C-6.59948292 31.51913704 -9.02630213 35.59241461 -14 39 C-17.0625 39.5 -17.0625 39.5 -20 39 C-22.30275556 37.1329009 -23.67823871 35.64352259 -25 33 C-25.42873471 28.16050748 -24.52021485 25.42606356 -22.078125 21.26953125 C-21.46453125 20.21958984 -20.8509375 19.16964844 -20.21875 18.08789062 C-19.5690625 17.00701172 -18.919375 15.92613281 -18.25 14.8125 C-17.61578125 13.72001953 -16.9815625 12.62753906 -16.328125 11.50195312 C-8.7946452 -1.23433617 -8.7946452 -1.23433617 0 0 Z " fill="#000305" transform="translate(264,105)"/>
<path d="M0 0 C3.69824535 2.05458075 4.7810498 3.3431494 6.125 7.375 C5.99216881 11.22710442 5.3276156 12.53196698 2.82324219 15.35888672 C-1.11592644 18.90456046 -5.82479275 21.31849015 -10.4375 23.875 C-11.97374023 24.76445312 -11.97374023 24.76445312 -13.54101562 25.671875 C-14.53681641 26.23132813 -15.53261719 26.79078125 -16.55859375 27.3671875 C-17.45892334 27.87362793 -18.35925293 28.38006836 -19.28686523 28.90185547 C-22.43422029 30.17575118 -24.63313764 30.34331517 -28 30 C-30.87459336 28.00028288 -32.62907801 26.51060972 -33.484375 23.02734375 C-33.625 20.9375 -33.625 20.9375 -33 17 C-28.26010808 12.63786137 -22.56716332 9.54338831 -17.0625 6.25 C-15.59780273 5.34701172 -15.59780273 5.34701172 -14.10351562 4.42578125 C-13.15283203 3.85730469 -12.20214844 3.28882813 -11.22265625 2.703125 C-10.36422119 2.18395508 -9.50578613 1.66478516 -8.62133789 1.12988281 C-5.51734988 -0.20803807 -3.34957083 -0.31340342 0 0 Z " fill="#000304" transform="translate(87,290)"/>
<path d="M0 0 C3.375 2.125 3.375 2.125 6 5 C6.625 8 6.625 8 6 11 C1.89826707 16.94992831 -3.73367429 19.76718058 -9.875 23.3125 C-11.48955078 24.28026367 -11.48955078 24.28026367 -13.13671875 25.26757812 C-14.18214844 25.87666016 -15.22757812 26.48574219 -16.3046875 27.11328125 C-17.25327637 27.66798096 -18.20186523 28.22268066 -19.17919922 28.79418945 C-22.39521094 30.16894122 -24.53615425 30.37465598 -28 30 C-30.86314748 28.00824523 -32.5961805 26.50597346 -33.51953125 23.0625 C-33.83019003 19.24789916 -33.83019003 19.24789916 -33 17 C-28.17737859 12.24052257 -22.34633932 9.04282584 -16.5 5.6875 C-15.57574219 5.13771484 -14.65148437 4.58792969 -13.69921875 4.02148438 C-5.04180814 -0.96364834 -5.04180814 -0.96364834 0 0 Z " fill="#000305" transform="translate(316,158)"/>
<path d="M0 0 C2.19335938 1.58398438 2.19335938 1.58398438 4 4 C4.39842915 6.6326394 4.56215695 8.84012168 4.53125 11.46875 C4.5350769 12.186073 4.53890381 12.903396 4.54284668 13.64245605 C4.54556227 15.15536914 4.53822555 16.66832945 4.52148438 18.18115234 C4.50006551 20.49292976 4.52129351 22.80160013 4.546875 25.11328125 C4.54423166 26.58594434 4.53910653 28.0586055 4.53125 29.53125 C4.53934692 30.21989136 4.54744385 30.90853271 4.55578613 31.61804199 C4.49108358 34.94061116 4.20837086 36.72448493 2.18164062 39.40429688 C-0.9230403 41.67513332 -3.17563341 42 -7 42 C-9.80189446 40.23358828 -11.51524911 38.96950178 -13 36 C-13.25840788 31.62987717 -13.27103382 27.25594302 -13.29516602 22.87915039 C-13.31235449 20.70589761 -13.35623807 18.53417654 -13.40039062 16.36132812 C-13.41052026 14.9739695 -13.41903552 13.58659796 -13.42578125 12.19921875 C-13.44036377 10.93940186 -13.45494629 9.67958496 -13.4699707 8.3815918 C-12.91954573 4.4211054 -11.78798822 2.80680187 -9 0 C-5.81452856 -1.59273572 -3.39809153 -0.76164121 0 0 Z " fill="#000305" transform="translate(192,86)"/>
<path d="M0 0 C6.46103594 1.84544719 10.69850842 11.54138358 13.87597656 16.9465332 C14.37355469 17.74575195 14.87113281 18.5449707 15.38378906 19.3684082 C18.51183007 24.67920309 20.28141492 29.36043956 19.00097656 35.5715332 C16.45626434 38.64015676 14.91155675 39.41976984 11.00097656 40.0715332 C6.42962281 39.30964091 3.91663192 36.83946135 1.23999023 33.13305664 C-0.46207096 30.20556429 -2.15079012 27.2727137 -3.81152344 24.3215332 C-4.40900391 23.30961914 -5.00648437 22.29770508 -5.62207031 21.25512695 C-8.94065014 15.40684114 -10.94715725 11.32409598 -9.99902344 4.5715332 C-7.58130947 0.54200993 -4.67223012 -0.25509302 0 0 Z " fill="#000304" transform="translate(116.9990234375,104.428466796875)"/>
<path d="M0 0 C0.33 0 0.66 0 1 0 C1 107.25 1 214.5 1 325 C0.67 325 0.34 325 0 325 C-0.02505615 324.23333008 -0.0501123 323.46666016 -0.07592773 322.67675781 C-0.19201423 319.20100717 -0.31468366 315.72551908 -0.4375 312.25 C-0.49647461 310.44015625 -0.49647461 310.44015625 -0.55664062 308.59375 C-0.59853516 307.43359375 -0.64042969 306.2734375 -0.68359375 305.078125 C-0.72025146 304.00981445 -0.75690918 302.94150391 -0.79467773 301.84082031 C-0.90540119 299.08171821 -0.90540119 299.08171821 -1.58227539 296.80761719 C-2 295 -2 295 -1 292 C-0.90452454 290.35898652 -0.86626685 288.71436545 -0.8613348 287.0705843 C-0.85586036 286.04745964 -0.85038591 285.02433499 -0.84474558 283.97020656 C-0.84376747 282.84278818 -0.84278936 281.7153698 -0.84178162 280.55378723 C-0.83437465 278.76134639 -0.83437465 278.76134639 -0.82681805 276.93269461 C-0.81408847 273.61020398 -0.80581426 270.28775544 -0.79939139 266.96525013 C-0.79139404 263.38448008 -0.77769397 259.80373139 -0.76467896 256.22297668 C-0.74290676 250.01719137 -0.72476499 243.81140391 -0.70907402 237.60560036 C-0.68638216 228.63299954 -0.65823838 219.66042238 -0.62875474 210.68784162 C-0.58107045 196.13117894 -0.53780853 181.57450659 -0.49731445 167.01782227 C-0.45796379 152.87556201 -0.41653859 138.73331035 -0.37231445 124.59106445 C-0.36959018 123.71964991 -0.36686591 122.84823538 -0.36405908 121.95041434 C-0.35037968 117.57887733 -0.33665939 113.20734045 -0.32291877 108.83580363 C-0.20894083 72.55722025 -0.10213439 36.27861855 0 0 Z " fill="#02A0E9" transform="translate(477,118)"/>
</svg>
